<svg xmlns="http://www.w3.org/2000/svg" viewBox="0 0 256 312" width="48" height="48">
  <path d="M213.803 167.57c-.356-37.79 30.902-55.82 32.293-56.6-17.6-25.74-44.98-29.29-54.6-29.69-23.29-2.36-45.44 13.77-57.29 13.77-11.85 0-30.04-13.4-49.31-13.04-25.4.38-48.78 14.74-61.83 37.41-26.36 45.78-6.73 113.34 18.93 150.45 12.54 18.1 27.45 38.39 47.08 37.69 18.94-.74 26.1-12.2 49.05-12.2 22.95 0 29.37 12.2 49.31 11.83 20.36-.31 33.24-18.51 45.74-36.67 14.39-21.05 20.28-41.41 20.6-42.45-.45-.21-39.57-15.2-39.97-60.5z" fill="#000"/>
  <path d="M174.6 54.86c10.52-12.75 17.6-30.49 15.68-48.29-15.18.61-33.46 10.1-44.36 22.84-9.73 11.25-18.22 29.51-15.94 46.89 16.86 1.32 34.1-8.59 44.62-21.44z" fill="#000"/>
</svg>
