<svg xmlns="http://www.w3.org/2000/svg" viewBox="0 0 48 48" width="48" height="48">
  <path fill="#FFC107" d="M43.611 20.083H42V20H24v8h11.303C33.79 32.657 29.215 36 24 36c-6.627 0-12-5.373-12-12s5.373-12 12-12c3.059 0 5.842 1.153 7.961 3.039l5.657-5.657C33.64 6.053 29.084 4 24 4 12.954 4 4 12.954 4 24s8.954 20 20 20 20-8.954 20-20c0-1.341-.138-2.65-.389-3.917z"/>
  <path fill="#FF3D00" d="M6.306 14.691l6.571 4.817C14.491 16.108 18.878 12 24 12c3.059 0 5.842 1.153 7.961 3.039l5.657-5.657C33.64 6.053 29.084 4 24 4 16.318 4 9.656 8.337 6.306 14.691z"/>
  <path fill="#4CAF50" d="M24 44c5.149 0 9.74-1.977 13.246-5.195l-6.104-5.159C29.1 35.211 26.676 36 24 36c-5.192 0-9.549-3.317-11.171-7.946l-6.497 5.01C9.645 39.556 16.3 44 24 44z"/>
  <path fill="#1976D2" d="M43.611 20.083H42V20H24v8h11.303c-1.13 3.154-3.412 5.657-6.161 7.03l.005-.003 6.104 5.159C37.837 41.019 44 36 44 24c0-1.341-.138-2.65-.389-3.917z"/>
</svg>
